<svg version="1.1" className='animated-svg' id="Layer_1" xmlns="http://www.w3.org/2000/svg"
    xmlns:xlink="http://www.w3.org/1999/xlink" x="0px" y="0px"
    width="100%" viewBox="0 0 544 448" enable-background="new 0 0 544 448" xml:space="preserve">
                                <path opacity="1.000000" fill='none' stroke='#ccf381' stroke-width="30" stroke-miterlimit="10"
                                    d="M377.677155,278.764008 
            C361.988983,251.662964 346.296143,224.564651 330.614075,197.460068 
            C316.600525,173.239288 302.594116,149.014374 288.597565,124.783768 
            C286.641235,121.397011 284.251404,118.476982 280.594666,116.812195 
            C272.891113,113.305061 265.211060,116.393486 260.187256,125.090012 
            C240.191620,159.703873 220.210999,194.326401 200.229065,228.948166 
            C182.995041,258.808777 165.713333,288.642059 148.569809,318.554535 
            C143.660889,327.119781 145.707886,335.938538 153.189072,340.325867 
            C161.004425,344.909210 169.205780,342.543243 174.443176,333.988953 
            C176.315796,330.930359 178.666611,328.482910 181.529388,326.385101 
            C226.903580,293.135315 276.482727,285.190186 329.545898,303.418274 
            C347.857513,309.708649 366.874115,316.374207 376.205963,336.476654 
            C378.800293,342.065369 386.220795,343.695312 392.029602,341.992218 
            C402.033722,339.059082 406.248169,328.789703 400.946167,319.254639 
            C393.499695,305.863007 385.693146,292.671570 377.677155,278.764008"/>
                            </svg>