<svg version="1.1" id="Layer_1" xmlns="http://www.w3.org/2000/svg"
	xmlns:xlink="http://www.w3.org/1999/xlink" x="0px" y="0px"
	width="100%" viewBox="0 0 544 448" enable-background="new 0 0 544 448" xml:space="preserve">
<path fill="#ccf381" opacity="1.000000" stroke="none" 
	d="
M377.677155,278.764008 
	C361.988983,251.662964 346.296143,224.564651 330.614075,197.460068 
	C316.600525,173.239288 302.594116,149.014374 288.597565,124.783768 
	C286.641235,121.397011 284.251404,118.476982 280.594666,116.812195 
	C272.891113,113.305061 265.211060,116.393486 260.187256,125.090012 
	C240.191620,159.703873 220.210999,194.326401 200.229065,228.948166 
	C182.995041,258.808777 165.713333,288.642059 148.569809,318.554535 
	C143.660889,327.119781 145.707886,335.938538 153.189072,340.325867 
	C161.004425,344.909210 169.205780,342.543243 174.443176,333.988953 
	C176.315796,330.930359 178.666611,328.482910 181.529388,326.385101 
	C226.903580,293.135315 276.482727,285.190186 329.545898,303.418274 
	C347.857513,309.708649 366.874115,316.374207 376.205963,336.476654 
	C378.800293,342.065369 386.220795,343.695312 392.029602,341.992218 
	C402.033722,339.059082 406.248169,328.789703 400.946167,319.254639 
	C393.499695,305.863007 385.693146,292.671570 377.677155,278.764008 
z"/>
<path fill="#4831d4" opacity="1.000000" stroke="none" 
	d="
M287.234070,182.833755 
	C305.921295,215.287613 324.451874,247.411484 342.982452,279.535339 
	C342.649414,279.891968 342.316406,280.248566 341.983398,280.605164 
	C335.518799,277.992249 328.037384,278.488068 323.637299,270.501587 
	C311.500610,248.472610 298.635101,226.845184 286.055481,205.060303 
	C285.555634,204.194641 285.039581,203.338043 284.517731,202.485397 
	C278.497589,192.649750 270.328125,192.621292 264.574799,202.487106 
	C258.280853,213.279968 252.087006,224.131195 245.843491,234.953491 
	C238.184875,248.228622 230.489090,261.482483 222.896378,274.795166 
	C221.937057,276.477234 220.907974,277.743652 219.023438,278.386505 
	C214.654694,279.876801 210.330170,281.496826 205.987732,283.064240 
	C205.540329,282.678619 205.092941,282.293030 204.645538,281.907410 
	C227.638031,242.011383 250.630524,202.115341 274.102142,161.387955 
	C279.705597,168.507736 282.911774,175.813736 287.234070,182.833755 
z"/>
<path fill="#4831d4" opacity="1.000000" stroke="none" 
	d="
M275.010925,269.193817 
	C266.114807,268.835144 257.775055,270.408722 248.035416,270.647156 
	C256.956696,255.129929 265.252197,240.701218 274.253357,225.045059 
	C283.928467,240.076492 291.599731,254.750061 300.046906,269.190582 
	C291.292145,269.190582 283.400116,269.190582 275.010925,269.193817 
z"/>
</svg>